<?xml version="1.0" encoding="UTF-8" standalone="no"?>
<!-- Generator: Adobe Illustrator 16.0.0, SVG Export Plug-In . SVG Version: 6.00 Build 0)  -->
<svg xmlns:dc="http://purl.org/dc/elements/1.1/" xmlns:cc="http://creativecommons.org/ns#" xmlns:rdf="http://www.w3.org/1999/02/22-rdf-syntax-ns#" xmlns:svg="http://www.w3.org/2000/svg" xmlns="http://www.w3.org/2000/svg" xmlns:sodipodi="http://sodipodi.sourceforge.net/DTD/sodipodi-0.dtd" xmlns:inkscape="http://www.inkscape.org/namespaces/inkscape" version="1.1" id="Слой_2" x="0px" y="0px" width="664.83398" height="664.83398" viewBox="0 0 664.83398 664.83397" enable-background="new 0 0 671 841.89" xml:space="preserve" sodipodi:docname="koleso.svg" inkscape:version="0.92.4 (33fec40, 2019-01-16)"><metadata id="metadata4397"><rdf:RDF><cc:Work rdf:about=""><dc:format>image/svg+xml</dc:format><dc:type rdf:resource="http://purl.org/dc/dcmitype/StillImage"/><dc:title/></cc:Work></rdf:RDF></metadata><defs id="defs4395"/><sodipodi:namedview pagecolor="#ffffff" bordercolor="#666666" borderopacity="1" objecttolerance="10" gridtolerance="10" guidetolerance="10" inkscape:pageopacity="0" inkscape:pageshadow="2" inkscape:window-width="1920" inkscape:window-height="1016" id="namedview4393" showgrid="false" inkscape:zoom="0.99062821" inkscape:cx="434.01025" inkscape:cy="329.10235" inkscape:window-x="0" inkscape:window-y="27" inkscape:window-maximized="1" inkscape:current-layer="Слой_2" fit-margin-top="0" fit-margin-left="0" fit-margin-right="0" fit-margin-bottom="0"/>
<g id="g4390" transform="translate(-6,-85.890015)">
	<linearGradient id="SVGID_1_" gradientUnits="userSpaceOnUse" x1="99.133797" y1="179.0239" x2="569.24103" y2="649.13123">
		<stop offset="0" style="stop-color:#EEEBE9" id="stop4075"/>
		<stop offset="0" style="stop-color:#F0E3CA" id="stop4077"/>
		<stop offset="0" style="stop-color:#F3D9A1" id="stop4079"/>
		<stop offset="0" style="stop-color:#F5D07B" id="stop4081"/>
		<stop offset="0" style="stop-color:#F7C85B" id="stop4083"/>
		<stop offset="0" style="stop-color:#F9C23F" id="stop4085"/>
		<stop offset="0" style="stop-color:#FBBC29" id="stop4087"/>
		<stop offset="0" style="stop-color:#FCB818" id="stop4089"/>
		<stop offset="0" style="stop-color:#FCB50D" id="stop4091"/>
		<stop offset="0" style="stop-color:#FDB306" id="stop4093"/>
		<stop offset="0" style="stop-color:#FDB304" id="stop4095"/>
		<stop offset="0.2995" style="stop-color:#FDB005" id="stop4097"/>
		<stop offset="0.5291" style="stop-color:#FCA608" id="stop4099"/>
		<stop offset="0.7352" style="stop-color:#FA960C" id="stop4101"/>
		<stop offset="0.9267" style="stop-color:#F77F13" id="stop4103"/>
		<stop offset="1" style="stop-color:#F67416" id="stop4105"/>
	</linearGradient>
	<circle cx="338.41699" cy="418.30701" r="332.41699" id="circle4108" style="fill:url(#SVGID_1_)"/>
	<g id="g4133">
		<path d="m 203.126,165.068 c 0.236,-1.459 0.973,-2.782 2.089,-3.751 4.656,-4.044 20.78,-17.01 43.785,-24.26 27.5,-8.667 48.833,-15.667 61,-15.667 12.167,0 21.667,9 15.833,20.583 -5.833,11.583 -21.851,43.773 -25.583,85.417 -3.75,41.833 -1.222,90.971 -1.25,95.25 -0.042,6.25 -2.333,17.489 -17,17.489 -14.667,0 -26.167,-11.906 -43.833,-41.406 -17.667,-29.5 -32.75,-73.583 -34.333,-91.333 -1.365,-15.294 -1.894,-34.981 -0.708,-42.322 z" id="path4110" inkscape:connector-curvature="0" style="fill:#ffffff"/>
		
			<radialGradient id="SVGID_2_" cx="276.5098" cy="319.2998" r="17.0835" fx="274.80441" fy="318.0928" gradientTransform="matrix(0.9063,0.4226,-0.4226,0.9063,163.2357,-89.0682)" gradientUnits="userSpaceOnUse">
			<stop offset="0" style="stop-color:#EEEBE9" id="stop4112"/>
			<stop offset="0" style="stop-color:#F9F8F8" id="stop4114"/>
			<stop offset="0" style="stop-color:#FFFFFF" id="stop4116"/>
			<stop offset="0.1019" style="stop-color:#F0F0F0" id="stop4118"/>
			<stop offset="0.2967" style="stop-color:#C9C9C9" id="stop4120"/>
			<stop offset="0.3665" style="stop-color:#BABABA" id="stop4122"/>
			<stop offset="0.4004" style="stop-color:#B4B4B4" id="stop4124"/>
			<stop offset="0.8104" style="stop-color:#696E6F" id="stop4126"/>
			<stop offset="1" style="stop-color:#4C5354" id="stop4128"/>
		</radialGradient>
		<circle cx="281.996" cy="323.54199" r="17.083" id="circle4131" style="fill:url(#SVGID_2_)"/>
	</g>
	<path d="m 348.749,130.669 c 0.934,-1.146 2.233,-1.923 3.685,-2.205 6.054,-1.176 26.316,-3.324 50.049,0.869 28.394,5.017 50.127,10.836 60.665,16.917 10.539,6.081 14.27,18.624 3.428,25.742 -10.842,7.117 -40.803,26.994 -64.849,61.198 -24.155,34.36 -46.522,78.185 -48.686,81.876 -3.16,5.393 -10.762,13.983 -23.466,6.653 -12.704,-7.33 -16.714,-23.39 -17.272,-57.771 -0.559,-34.381 8.408,-80.103 15.908,-96.268 6.461,-13.929 15.843,-31.245 20.538,-37.011 z" id="path4135" inkscape:connector-curvature="0" style="fill:#ffffff"/>
	
		<radialGradient id="SVGID_3_" cx="291.80319" cy="413.16751" r="17.082701" fx="290.0979" fy="411.96051" gradientTransform="matrix(0.8662,0.4998,-0.4998,0.8662,289.0736,-202.9993)" gradientUnits="userSpaceOnUse">
		<stop offset="0" style="stop-color:#EEEBE9" id="stop4137"/>
		<stop offset="0" style="stop-color:#F9F8F8" id="stop4139"/>
		<stop offset="0" style="stop-color:#FFFFFF" id="stop4141"/>
		<stop offset="0.1019" style="stop-color:#F0F0F0" id="stop4143"/>
		<stop offset="0.2967" style="stop-color:#C9C9C9" id="stop4145"/>
		<stop offset="0.3665" style="stop-color:#BABABA" id="stop4147"/>
		<stop offset="0.4004" style="stop-color:#B4B4B4" id="stop4149"/>
		<stop offset="0.8104" style="stop-color:#696E6F" id="stop4151"/>
		<stop offset="1" style="stop-color:#4C5354" id="stop4153"/>
	</radialGradient>
	<circle cx="337.862" cy="307.349" r="17.083" id="circle4156" style="fill:url(#SVGID_3_)"/>
	<path d="m 490.247,175.449 c 2.088,-0.916 4.44,-0.991 6.594,-0.24 6.639,2.317 5.159,-0.511 41.966,25.231 23.628,16.525 38.141,34.285 44.271,44.794 6.131,10.509 3.145,23.25 -9.8,24.048 -12.945,0.798 -48.82,3.185 -86.671,20.946 -38.022,17.842 -79.191,44.788 -82.901,46.919 -5.42,3.114 -16.282,6.798 -23.674,-5.87 -7.391,-12.668 -2.901,-28.601 13.676,-58.727 16.578,-30.125 47.054,-65.369 61.588,-75.681 11.825,-8.39 27.41,-18.111 34.951,-21.42 z" id="path4158" inkscape:connector-curvature="0" style="fill:#ffffff"/>
	<path d="m 594.131,283.55 c 1.46,0.23 2.785,0.963 3.759,2.076 4.062,4.642 17.084,20.719 24.416,43.698 8.766,27.469 15.842,48.777 15.885,60.944 0.043,12.167 -8.923,21.699 -20.526,15.907 -11.604,-5.792 -43.852,-21.694 -85.508,-25.278 -41.847,-3.601 -90.975,-0.897 -95.254,-0.91 -6.25,-0.02 -17.498,-2.271 -17.55,-16.938 -0.053,-14.667 11.813,-26.209 41.249,-43.981 29.438,-17.772 73.466,-33.012 91.211,-34.659 15.289,-1.419 34.973,-2.019 42.318,-0.859 z" id="path4160" inkscape:connector-curvature="0" style="fill:#ffffff"/>
	<path d="m 628.562,429.164 c 1.143,0.937 1.916,2.238 2.194,3.69 1.157,6.058 4.269,26.513 -1.02,50.047 -6.321,28.132 -10.985,50.094 -17.098,60.614 -6.112,10.52 -18.666,14.213 -25.751,3.35 -7.086,-10.862 -26.872,-40.882 -61.005,-65.03 -34.288,-24.258 -78.045,-46.756 -81.73,-48.931 -5.384,-3.176 -13.95,-10.803 -6.583,-23.485 7.368,-12.682 23.44,-16.644 57.822,-17.1 34.383,-0.456 80.077,8.647 96.22,16.195 13.91,6.504 31.199,15.937 36.951,20.65 z" id="path4162" inkscape:connector-curvature="0" style="fill:#ffffff"/>
	<path d="m 584.729,571.76 c 0.532,1.38 0.562,2.894 0.085,4.293 -1.984,5.839 -9.384,25.161 -25.606,43.012 -19.392,21.338 -34.296,38.131 -44.807,44.259 -10.511,6.128 -23.251,3.138 -24.045,-9.808 -0.795,-12.944 -3.172,-48.82 -20.921,-86.676 -17.831,-38.028 -44.765,-79.205 -46.896,-82.916 -3.112,-5.42 -6.793,-16.284 5.877,-23.672 12.671,-7.387 28.603,-2.894 58.723,13.693 30.121,16.587 65.354,47.073 75.663,61.609 8.882,12.527 19.255,29.268 21.927,36.206 z" id="path4164" inkscape:connector-curvature="0" style="fill:#ffffff"/>
	<path d="m 474.999,673.839 c -0.235,1.459 -0.974,2.782 -2.09,3.751 -4.656,4.043 -20.784,17.005 -43.791,24.249 -27.503,8.659 -48.838,15.653 -61.005,15.65 -12.166,-0.004 -21.664,-9.006 -15.827,-20.588 5.836,-11.582 21.861,-43.768 25.605,-85.41 3.761,-41.832 1.246,-90.97 1.275,-95.249 0.043,-6.25 2.338,-17.489 17.005,-17.485 14.666,0.004 26.163,11.913 43.822,41.418 17.658,29.505 32.73,73.592 34.309,91.342 1.361,15.295 1.886,34.983 0.697,42.322 z" id="path4166" inkscape:connector-curvature="0" style="fill:#ffffff"/>
	<path d="m 330.802,708.062 c -0.924,1.153 -2.218,1.941 -3.667,2.234 -6.045,1.224 -26.062,2.007 -50.055,-0.477 -38.867,-4.022 -50.21,-10.442 -60.796,-16.439 -10.586,-5.998 -14.415,-18.512 -3.629,-25.714 10.786,-7.203 40.589,-27.313 64.366,-61.706 23.885,-34.548 45.908,-78.547 48.042,-82.256 3.117,-5.417 10.652,-14.066 23.413,-6.837 12.761,7.23 16.897,23.259 17.726,57.634 0.829,34.376 -7.779,80.166 -15.151,96.39 -6.354,13.98 -15.598,31.369 -20.249,37.171 z" id="path4168" inkscape:connector-curvature="0" style="fill:#ffffff"/>
	<g id="g4178">
		<path d="m 187.452,664.212 c -1.382,0.524 -2.896,0.547 -4.293,0.064 -5.83,-2.013 -25.116,-9.504 -42.889,-25.811 -21.246,-19.494 -37.967,-34.478 -44.045,-45.018 -6.078,-10.539 -3.027,-23.265 9.921,-23.998 12.948,-0.733 48.835,-2.938 86.775,-20.509 38.113,-17.649 79.417,-44.387 83.138,-46.499 5.435,-3.087 16.316,-6.716 23.644,5.989 7.327,12.705 2.757,28.615 -13.972,58.657 -16.73,30.041 -47.383,65.129 -61.969,75.368 -12.568,8.825 -29.358,19.118 -36.31,21.757 z" id="path4170" inkscape:connector-curvature="0" style="fill:#ffffff"/>
		<path d="m 85.634,555.179 c -1.46,-0.227 -2.788,-0.955 -3.765,-2.064 -4.074,-4.63 -17.144,-20.67 -24.542,-43.628 -8.844,-27.443 -15.982,-48.731 -16.061,-60.897 -0.079,-12.166 8.86,-21.725 20.48,-15.966 11.621,5.758 43.914,21.567 85.581,25.031 41.856,3.479 90.977,0.634 95.256,0.634 6.25,0.002 17.504,2.221 17.599,16.887 0.095,14.667 -11.737,26.243 -41.122,44.101 -29.385,17.856 -73.371,33.225 -91.11,34.923 -15.285,1.462 -34.968,2.118 -42.316,0.979 z" id="path4172" inkscape:connector-curvature="0" style="fill:#ffffff"/>
		<path d="m 51.772,409.186 c -1.147,-0.932 -1.927,-2.229 -2.211,-3.68 -1.187,-6.052 -4.393,-26.492 0.785,-50.051 6.189,-28.162 10.751,-50.146 16.814,-60.694 6.063,-10.549 18.6,-14.3 25.736,-3.471 7.136,10.83 27.063,40.757 61.308,64.745 34.4,24.097 78.263,46.391 81.958,48.548 5.398,3.151 14,10.738 6.692,23.454 -7.308,12.716 -23.362,16.754 -57.742,17.37 -34.38,0.617 -80.116,-8.272 -96.294,-15.745 -13.94,-6.439 -31.272,-15.79 -37.046,-20.476 z" id="path4174" inkscape:connector-curvature="0" style="fill:#ffffff"/>
		<path d="m 93.919,267.102 c -0.54,-1.376 -0.578,-2.89 -0.111,-4.292 1.95,-5.851 11.241,-23.599 25.345,-43.167 22.847,-31.7 34.063,-38.338 44.537,-44.53 10.474,-6.192 23.231,-3.279 24.105,9.661 0.874,12.94 3.467,48.801 21.447,86.548 18.062,37.919 45.245,78.931 47.398,82.629 3.145,5.401 6.892,16.243 -5.733,23.707 -12.625,7.464 -28.584,3.067 -58.805,-13.336 -30.221,-16.403 -65.639,-46.675 -76.036,-61.148 -8.958,-12.472 -19.432,-29.15 -22.147,-36.072 z" id="path4176" inkscape:connector-curvature="0" style="fill:#ffffff"/>
	</g>
	
		<radialGradient id="SVGID_4_" cx="348.54489" cy="398.0806" r="17.082701" fx="346.8396" fy="396.8736" gradientTransform="matrix(0.8662,0.4998,-0.4998,0.8662,289.0736,-202.9993)" gradientUnits="userSpaceOnUse">
		<stop offset="0" style="stop-color:#EEEBE9" id="stop4180"/>
		<stop offset="0" style="stop-color:#F9F8F8" id="stop4182"/>
		<stop offset="0" style="stop-color:#FFFFFF" id="stop4184"/>
		<stop offset="0.1019" style="stop-color:#F0F0F0" id="stop4186"/>
		<stop offset="0.2967" style="stop-color:#C9C9C9" id="stop4188"/>
		<stop offset="0.3665" style="stop-color:#BABABA" id="stop4190"/>
		<stop offset="0.4004" style="stop-color:#B4B4B4" id="stop4192"/>
		<stop offset="0.8104" style="stop-color:#696E6F" id="stop4194"/>
		<stop offset="1" style="stop-color:#4C5354" id="stop4196"/>
	</radialGradient>
	<circle cx="394.55301" cy="322.64099" r="17.083" id="circle4199" style="fill:url(#SVGID_4_)"/>
	
		<radialGradient id="SVGID_5_" cx="404.44919" cy="412.6221" r="17.0825" fx="402.7439" fy="411.4151" gradientTransform="matrix(0.8662,0.4998,-0.4998,0.8662,289.0736,-202.9993)" gradientUnits="userSpaceOnUse">
		<stop offset="0" style="stop-color:#EEEBE9" id="stop4201"/>
		<stop offset="0" style="stop-color:#F9F8F8" id="stop4203"/>
		<stop offset="0" style="stop-color:#FFFFFF" id="stop4205"/>
		<stop offset="0.1019" style="stop-color:#F0F0F0" id="stop4207"/>
		<stop offset="0.2967" style="stop-color:#C9C9C9" id="stop4209"/>
		<stop offset="0.3665" style="stop-color:#BABABA" id="stop4211"/>
		<stop offset="0.4004" style="stop-color:#B4B4B4" id="stop4213"/>
		<stop offset="0.8104" style="stop-color:#696E6F" id="stop4215"/>
		<stop offset="1" style="stop-color:#4C5354" id="stop4217"/>
	</radialGradient>
	<circle cx="435.70901" cy="363.177" r="17.083" id="circle4220" style="fill:url(#SVGID_5_)"/>
	
		<radialGradient id="SVGID_6_" cx="631.24408" cy="480.01999" r="17.0823" fx="629.53882" fy="478.81311" gradientTransform="matrix(0.8662,0.4998,-0.4998,0.8662,289.0736,-202.9993)" gradientUnits="userSpaceOnUse">
		<stop offset="0" style="stop-color:#EEEBE9" id="stop4222"/>
		<stop offset="0" style="stop-color:#F9F8F8" id="stop4224"/>
		<stop offset="0" style="stop-color:#FFFFFF" id="stop4226"/>
		<stop offset="0.1019" style="stop-color:#F0F0F0" id="stop4228"/>
		<stop offset="0.2967" style="stop-color:#C9C9C9" id="stop4230"/>
		<stop offset="0.3665" style="stop-color:#BABABA" id="stop4232"/>
		<stop offset="0.4004" style="stop-color:#B4B4B4" id="stop4234"/>
		<stop offset="0.8104" style="stop-color:#696E6F" id="stop4236"/>
		<stop offset="1" style="stop-color:#4C5354" id="stop4238"/>
	</radialGradient>
	<circle cx="598.474" cy="534.909" r="17.083" id="circle4241" style="fill:url(#SVGID_6_)"/>
	
		<radialGradient id="SVGID_7_" cx="607.9668" cy="624.63037" r="17.082701" fx="606.26147" fy="623.4234" gradientTransform="matrix(0.8662,0.4998,-0.4998,0.8662,289.0736,-202.9993)" gradientUnits="userSpaceOnUse">
		<stop offset="0" style="stop-color:#EEEBE9" id="stop4243"/>
		<stop offset="0" style="stop-color:#F9F8F8" id="stop4245"/>
		<stop offset="0" style="stop-color:#FFFFFF" id="stop4247"/>
		<stop offset="0.1019" style="stop-color:#F0F0F0" id="stop4249"/>
		<stop offset="0.2967" style="stop-color:#C9C9C9" id="stop4251"/>
		<stop offset="0.3665" style="stop-color:#BABABA" id="stop4253"/>
		<stop offset="0.4004" style="stop-color:#B4B4B4" id="stop4255"/>
		<stop offset="0.8104" style="stop-color:#696E6F" id="stop4257"/>
		<stop offset="1" style="stop-color:#4C5354" id="stop4259"/>
	</radialGradient>
	<circle cx="506.035" cy="648.53699" r="17.083" id="circle4262" style="fill:url(#SVGID_7_)"/>
	
		<radialGradient id="SVGID_8_" cx="515.27539" cy="738.95459" r="17.083099" fx="513.57001" fy="737.74762" gradientTransform="matrix(0.8662,0.4998,-0.4998,0.8662,289.0736,-202.9993)" gradientUnits="userSpaceOnUse">
		<stop offset="0" style="stop-color:#EEEBE9" id="stop4264"/>
		<stop offset="0" style="stop-color:#F9F8F8" id="stop4266"/>
		<stop offset="0" style="stop-color:#FFFFFF" id="stop4268"/>
		<stop offset="0.1019" style="stop-color:#F0F0F0" id="stop4270"/>
		<stop offset="0.2967" style="stop-color:#C9C9C9" id="stop4272"/>
		<stop offset="0.3665" style="stop-color:#BABABA" id="stop4274"/>
		<stop offset="0.4004" style="stop-color:#B4B4B4" id="stop4276"/>
		<stop offset="0.8104" style="stop-color:#696E6F" id="stop4278"/>
		<stop offset="1" style="stop-color:#4C5354" id="stop4280"/>
	</radialGradient>
	<circle cx="368.60599" cy="701.23798" r="17.084" id="circle4283" style="fill:url(#SVGID_8_)"/>
	
		<radialGradient id="SVGID_9_" cx="443.27341" cy="772.56592" r="17.0823" fx="441.56812" fy="771.35901" gradientTransform="matrix(0.8662,0.4998,-0.4998,0.8662,289.0736,-202.9993)" gradientUnits="userSpaceOnUse">
		<stop offset="0" style="stop-color:#EEEBE9" id="stop4285"/>
		<stop offset="0" style="stop-color:#F9F8F8" id="stop4287"/>
		<stop offset="0" style="stop-color:#FFFFFF" id="stop4289"/>
		<stop offset="0.1019" style="stop-color:#F0F0F0" id="stop4291"/>
		<stop offset="0.2967" style="stop-color:#C9C9C9" id="stop4293"/>
		<stop offset="0.3665" style="stop-color:#BABABA" id="stop4295"/>
		<stop offset="0.4004" style="stop-color:#B4B4B4" id="stop4297"/>
		<stop offset="0.8104" style="stop-color:#696E6F" id="stop4299"/>
		<stop offset="1" style="stop-color:#4C5354" id="stop4301"/>
	</radialGradient>
	<circle cx="289.439" cy="694.36401" r="17.083" id="circle4304" style="fill:url(#SVGID_9_)"/>
	
		<radialGradient id="SVGID_10_" cx="319.4292" cy="785.24762" r="17.0825" fx="317.72391" fy="784.04059" gradientTransform="matrix(0.8662,0.4998,-0.4998,0.8662,289.0736,-202.9993)" gradientUnits="userSpaceOnUse">
		<stop offset="0" style="stop-color:#EEEBE9" id="stop4306"/>
		<stop offset="0" style="stop-color:#F9F8F8" id="stop4308"/>
		<stop offset="0" style="stop-color:#FFFFFF" id="stop4310"/>
		<stop offset="0.1019" style="stop-color:#F0F0F0" id="stop4312"/>
		<stop offset="0.2967" style="stop-color:#C9C9C9" id="stop4314"/>
		<stop offset="0.3665" style="stop-color:#BABABA" id="stop4316"/>
		<stop offset="0.4004" style="stop-color:#B4B4B4" id="stop4318"/>
		<stop offset="0.8104" style="stop-color:#696E6F" id="stop4320"/>
		<stop offset="1" style="stop-color:#4C5354" id="stop4322"/>
	</radialGradient>
	<circle cx="175.827" cy="643.45203" r="17.083" id="circle4325" style="fill:url(#SVGID_10_)"/>
	
		<radialGradient id="SVGID_11_" cx="253.97121" cy="687.84131" r="17.082701" fx="252.26579" fy="686.63428" gradientTransform="matrix(0.8662,0.4998,-0.4998,0.8662,289.0736,-202.9993)" gradientUnits="userSpaceOnUse">
		<stop offset="0" style="stop-color:#EEEBE9" id="stop4327"/>
		<stop offset="0" style="stop-color:#F9F8F8" id="stop4329"/>
		<stop offset="0" style="stop-color:#FFFFFF" id="stop4331"/>
		<stop offset="0.1019" style="stop-color:#F0F0F0" id="stop4333"/>
		<stop offset="0.2967" style="stop-color:#C9C9C9" id="stop4335"/>
		<stop offset="0.3665" style="stop-color:#BABABA" id="stop4337"/>
		<stop offset="0.4004" style="stop-color:#B4B4B4" id="stop4339"/>
		<stop offset="0.8104" style="stop-color:#696E6F" id="stop4341"/>
		<stop offset="1" style="stop-color:#4C5354" id="stop4343"/>
	</radialGradient>
	<circle cx="167.811" cy="526.36298" r="17.083" id="circle4346" style="fill:url(#SVGID_11_)"/>
	
		<radialGradient id="SVGID_12_" cx="233.0518" cy="586.24371" r="17.082701" fx="231.34641" fy="585.03668" gradientTransform="matrix(0.8662,0.4998,-0.4998,0.8662,289.0736,-202.9993)" gradientUnits="userSpaceOnUse">
		<stop offset="0" style="stop-color:#EEEBE9" id="stop4348"/>
		<stop offset="0" style="stop-color:#F9F8F8" id="stop4350"/>
		<stop offset="0" style="stop-color:#FFFFFF" id="stop4352"/>
		<stop offset="0.1019" style="stop-color:#F0F0F0" id="stop4354"/>
		<stop offset="0.2967" style="stop-color:#C9C9C9" id="stop4356"/>
		<stop offset="0.3665" style="stop-color:#BABABA" id="stop4358"/>
		<stop offset="0.4004" style="stop-color:#B4B4B4" id="stop4360"/>
		<stop offset="0.8104" style="stop-color:#696E6F" id="stop4362"/>
		<stop offset="1" style="stop-color:#4C5354" id="stop4364"/>
	</radialGradient>
	<circle cx="200.46899" cy="427.90302" r="17.083" id="circle4367" style="fill:url(#SVGID_12_)"/>
	
		<radialGradient id="SVGID_13_" cx="236.54539" cy="510.65771" r="17.0823" fx="234.8401" fy="509.45081" gradientTransform="matrix(0.8662,0.4998,-0.4998,0.8662,289.0736,-202.9993)" gradientUnits="userSpaceOnUse">
		<stop offset="0" style="stop-color:#EEEBE9" id="stop4369"/>
		<stop offset="0" style="stop-color:#F9F8F8" id="stop4371"/>
		<stop offset="0" style="stop-color:#FFFFFF" id="stop4373"/>
		<stop offset="0.1019" style="stop-color:#F0F0F0" id="stop4375"/>
		<stop offset="0.2967" style="stop-color:#C9C9C9" id="stop4377"/>
		<stop offset="0.3665" style="stop-color:#BABABA" id="stop4379"/>
		<stop offset="0.4004" style="stop-color:#B4B4B4" id="stop4381"/>
		<stop offset="0.8104" style="stop-color:#696E6F" id="stop4383"/>
		<stop offset="1" style="stop-color:#4C5354" id="stop4385"/>
	</radialGradient>
	<circle cx="241.27299" cy="364.177" r="17.083" id="circle4388" style="fill:url(#SVGID_13_)"/>
</g>
</svg>